<mxfile host="www.draw.io" modified="2020-01-07T05:49:40.876Z" agent="Mozilla/5.0 (Windows NT 6.1; Win64; x64) AppleWebKit/537.36 (KHTML, like Gecko) Chrome/76.0.3809.87 Safari/537.36" etag="RFwX9_VUjJNmUjIhTLVP" version="12.4.9" type="github" pages="2">
  <diagram id="6a731a19-8d31-9384-78a2-239565b7b9f0" name="功能结构图">
    <mxGraphModel dx="1273" dy="664" grid="1" gridSize="10" guides="1" tooltips="1" connect="1" arrows="1" fold="1" page="1" pageScale="1" pageWidth="1169" pageHeight="827" background="#ffffff" math="0" shadow="0">
      <root>
        <mxCell id="0"/>
        <mxCell id="1" parent="0"/>
        <mxCell id="1768" value="" style="edgeStyle=none;rounded=0;jumpStyle=none;html=1;shadow=0;labelBackgroundColor=none;startArrow=none;startFill=0;endArrow=classic;endFill=1;jettySize=auto;orthogonalLoop=1;strokeColor=#F08705;strokeWidth=3;fontFamily=Helvetica;fontSize=14;fontColor=#FFFFFF;spacing=5;entryX=0;entryY=0.5;entryDx=0;entryDy=0;" parent="1" source="1764" target="1772" edge="1">
          <mxGeometry relative="1" as="geometry">
            <mxPoint x="708" y="224" as="targetPoint"/>
          </mxGeometry>
        </mxCell>
        <mxCell id="1772" value="结构化存储系统" style="rounded=1;whiteSpace=wrap;html=1;shadow=0;labelBackgroundColor=none;strokeColor=none;strokeWidth=3;fillColor=#FF9933;fontFamily=Helvetica;fontSize=14;fontColor=#FFFFFF;align=center;spacing=5;fontStyle=0;arcSize=7;perimeterSpacing=2;" parent="1" vertex="1">
          <mxGeometry x="540" y="300" width="150" height="60" as="geometry"/>
        </mxCell>
        <mxCell id="1773" value="" style="edgeStyle=none;rounded=1;jumpStyle=none;html=1;shadow=0;labelBackgroundColor=none;startArrow=none;startFill=0;jettySize=auto;orthogonalLoop=1;strokeColor=#12AAB5;strokeWidth=3;fontFamily=Helvetica;fontSize=14;fontColor=#FFFFFF;spacing=5;fontStyle=1;fillColor=#b0e3e6;" parent="1" source="1771" target="1772" edge="1">
          <mxGeometry relative="1" as="geometry"/>
        </mxCell>
        <mxCell id="s48mFxM-5X-bNuoT_WhK-1796" value="公共服务" style="swimlane;html=1;startSize=20;horizontal=1;containerType=tree;comic=1;fillColor=#FFFFFF;" vertex="1" parent="1">
          <mxGeometry x="20" y="190" width="450" height="460" as="geometry"/>
        </mxCell>
        <mxCell id="1764" value="主从表关系管理接口" style="rounded=1;whiteSpace=wrap;html=1;shadow=0;labelBackgroundColor=none;strokeColor=none;strokeWidth=3;fillColor=#F08705;fontFamily=Helvetica;fontSize=14;fontColor=#FFFFFF;align=center;spacing=5;fontStyle=1;arcSize=7;perimeterSpacing=2;" parent="s48mFxM-5X-bNuoT_WhK-1796" vertex="1">
          <mxGeometry x="260" y="110" width="150" height="60" as="geometry"/>
        </mxCell>
        <mxCell id="1771" value="主表删除判断接口" style="rounded=1;whiteSpace=wrap;html=1;shadow=0;labelBackgroundColor=none;strokeColor=none;strokeWidth=3;fillColor=#12aab5;fontFamily=Helvetica;fontSize=14;fontColor=#FFFFFF;align=center;spacing=5;fontStyle=1;arcSize=7;perimeterSpacing=2;" parent="s48mFxM-5X-bNuoT_WhK-1796" vertex="1">
          <mxGeometry x="260" y="319.9999999999999" width="150" height="60" as="geometry"/>
        </mxCell>
        <mxCell id="1749" value="主从表关系模块" style="rounded=1;whiteSpace=wrap;html=1;shadow=0;labelBackgroundColor=none;strokeColor=none;strokeWidth=3;fillColor=#2F5B7C;fontFamily=Helvetica;fontSize=16;fontColor=#FFFFFF;align=center;fontStyle=1;spacing=5;arcSize=7;perimeterSpacing=2;" parent="s48mFxM-5X-bNuoT_WhK-1796" vertex="1">
          <mxGeometry x="50" y="210" width="150" height="70" as="geometry"/>
        </mxCell>
        <mxCell id="1745" value="" style="edgeStyle=none;rounded=0;jumpStyle=none;html=1;shadow=0;labelBackgroundColor=none;startArrow=none;startFill=0;endArrow=classic;endFill=1;jettySize=auto;orthogonalLoop=1;strokeColor=#2F5B7C;strokeWidth=3;fontFamily=Helvetica;fontSize=16;fontColor=#23445D;spacing=5;" parent="s48mFxM-5X-bNuoT_WhK-1796" source="1749" target="1764" edge="1">
          <mxGeometry relative="1" as="geometry"/>
        </mxCell>
        <mxCell id="s48mFxM-5X-bNuoT_WhK-1799" value="include" style="text;html=1;align=center;verticalAlign=middle;resizable=0;points=[];labelBackgroundColor=#ffffff;" vertex="1" connectable="0" parent="1745">
          <mxGeometry x="-0.2227" y="-5" relative="1" as="geometry">
            <mxPoint as="offset"/>
          </mxGeometry>
        </mxCell>
        <mxCell id="s48mFxM-5X-bNuoT_WhK-1795" value="" style="edgeStyle=none;rounded=0;jumpStyle=none;html=1;shadow=0;labelBackgroundColor=none;startArrow=none;startFill=0;endArrow=classic;endFill=1;jettySize=auto;orthogonalLoop=1;strokeColor=#2F5B7C;strokeWidth=3;fontFamily=Helvetica;fontSize=16;fontColor=#23445D;spacing=5;entryX=0;entryY=0.5;entryDx=0;entryDy=0;" edge="1" parent="s48mFxM-5X-bNuoT_WhK-1796" source="1749" target="1771">
          <mxGeometry relative="1" as="geometry">
            <mxPoint x="212" y="206.07647058823522" as="sourcePoint"/>
            <mxPoint x="488.42105263157873" y="82.49999999999989" as="targetPoint"/>
          </mxGeometry>
        </mxCell>
        <mxCell id="s48mFxM-5X-bNuoT_WhK-1801" value="include" style="text;html=1;align=center;verticalAlign=middle;resizable=0;points=[];labelBackgroundColor=#ffffff;" vertex="1" connectable="0" parent="s48mFxM-5X-bNuoT_WhK-1795">
          <mxGeometry x="-0.534" y="2" relative="1" as="geometry">
            <mxPoint as="offset"/>
          </mxGeometry>
        </mxCell>
        <mxCell id="s48mFxM-5X-bNuoT_WhK-1803" value="对外接口" style="rounded=1;whiteSpace=wrap;html=1;shadow=0;labelBackgroundColor=none;strokeColor=none;strokeWidth=3;fillColor=#61c6ce;fontFamily=Helvetica;fontSize=14;fontColor=#FFFFFF;align=center;spacing=5;fontStyle=0;arcSize=7;perimeterSpacing=2;" vertex="1" parent="1">
          <mxGeometry x="540" y="510" width="150" height="60" as="geometry"/>
        </mxCell>
        <mxCell id="s48mFxM-5X-bNuoT_WhK-1804" value="" style="edgeStyle=none;rounded=1;jumpStyle=none;html=1;shadow=0;labelBackgroundColor=none;startArrow=none;startFill=0;jettySize=auto;orthogonalLoop=1;strokeColor=#12AAB5;strokeWidth=3;fontFamily=Helvetica;fontSize=14;fontColor=#FFFFFF;spacing=5;fontStyle=1;fillColor=#b0e3e6;entryX=1;entryY=0.5;entryDx=0;entryDy=0;exitX=0;exitY=0.5;exitDx=0;exitDy=0;" edge="1" parent="1" source="s48mFxM-5X-bNuoT_WhK-1803" target="1771">
          <mxGeometry relative="1" as="geometry">
            <mxPoint x="404.6190476190475" y="518" as="sourcePoint"/>
            <mxPoint x="585.3809523809525" y="372" as="targetPoint"/>
          </mxGeometry>
        </mxCell>
      </root>
    </mxGraphModel>
  </diagram>
  <diagram id="XK2QkVZ4_aUTgXAbBTcj" name="第 2 页">
    <mxGraphModel dx="1082" dy="564" grid="1" gridSize="10" guides="1" tooltips="1" connect="1" arrows="1" fold="1" page="1" pageScale="1" pageWidth="827" pageHeight="1169" math="0" shadow="0">
      <root>
        <mxCell id="uafoZd8kJrq9CwXrrMDU-0"/>
        <mxCell id="uafoZd8kJrq9CwXrrMDU-1" parent="uafoZd8kJrq9CwXrrMDU-0"/>
      </root>
    </mxGraphModel>
  </diagram>
</mxfile>
